<svg version="1.1" xmlns:svg="http://www.w3.org/2000/svg" xmlns="http://www.w3.org/2000/svg" 
 viewBox="0 0 300 190"  xml:space="preserve">
<style type="text/css">
  .st0{fill:#394C63;}
</style>
<g id="g3770" transform="translate(-152,-296)">
  <path id="path3766" class="st0" d="M199.2,367.5c-4.5,0-8.4,1.2-11.7,3.6c-2,1.5-4,4.1-5.7,6.5
  c-1-4.1-2.3-9.5-2.3-9.5l-12.8,0c-0.7,0-1.3,0.6-1.3,1.3v4.8c0,0.7,0.6,1.3,1.3,1.3l7.1,0c0,0,1.7,6.3,2.8,10.7
  c-1.5,2.7-2.9,5-4.2,7.4c-7,13.6-10.3,23-10.3,33.3c0,12.3,5.4,20.3,13.4,20.3c9.3,0,14.9-8.4,14.9-22.8c0-0.3,0-1.2,0-1.8
  c2.2,1.1,5.3,2,8,2c10.3,0,18.9-6.8,20.7-16.3c0.7-3.9,1.1-7.4,1.1-12.2c0-5.1-0.5-9.6-1.6-13.2
  C215.9,373.1,208.8,367.5,199.2,367.5L199.2,367.5z M175.8,440c-4,0-6-6.6-6-13.1c0-8.3,2.4-17.5,9.6-31.4
  c2.1,9.7,3.9,21.6,3.9,28.8C183.2,429,182.5,440,175.8,440L175.8,440z M212.1,406.9c-1.1,5.9-6.9,10.5-13.6,10.5
  c-2.8,0-5.8-1-8.3-1.8c-1.1-9.1-3.4-20.2-5.5-28.9c1.4-2.4,2.3-4.2,4.7-7c3.4-4.1,6.8-4.9,10-4.9c7.8,0,11.1,5.7,12.4,10.4
  c0.6,2,1.3,5.6,1.3,11.1C213,400.5,212.7,403.5,212.1,406.9z"/>
  <path id="path3768" class="st0" d="M450.4,413.5l-3.8-3.1c-0.2-0.2-0.5-0.3-0.8-0.3
  c-0.4,0-0.7,0.2-0.9,0.4h0c-1.2,1.5-3.5,3.9-3.8,4.2c-1.3,1.3-3.2,2.4-5.2,2.4c-3.6,0-5.9-1.1-5.9-7.4v-34.1h12.1
  c0.7,0,1.3-0.6,1.3-1.3v-4.8c0-0.7-0.6-1.3-1.3-1.3h-9.5v0h-2.6l0-14c0-0.7-0.6-1.3-1.3-1.3h-4.8c-0.7,0-1.3,0.6-1.3,1.3v13.9h-5.9
  c-0.7,0-1.3,0.6-1.3,1.3v4.8c0,0.7,0.6,1.3,1.3,1.3h5.9v0v25.5c-1.7,1.9-6.4,7-8.7,9.2c-0.5,0.5-0.9,0.9-1.4,1.3
  c-2.5,2.1-5.1,3.4-8.3,4.4c-3.8,1.2-7.1,1.5-12.1,1.5c-7.5,0-11.2-5.1-11.2-5.1c0.6-0.7,9.2-9.3,9.2-9.3c7.1-7.3,12.8-14.3,14-15.6
  c0,0,1.5-1.5,2.7-3.8c2.6-4.9,2.7-10.1-1.8-13.7c-2.1-1.7-6-2.8-12.6-2.7c-9.9,0.2-19.7,6-21.7,16.2c-0.6,2.8-1.1,6-1.1,12
  c0,1.5,0,3.3,0.1,4.6c0.1,2.8,0.4,5.4,0.9,8c0.2,1.2,0.6,2,1.1,3.5c-1,1.3-2.1,2.5-3.6,3.8c-1.2,0.9-3,1.3-4,1.3l-0.3,0
  c-2.7,0-4.4-1.5-6.5-3.8l-0.4-0.4c-1.1-1.1-8.7-10.9-14.3-18.2L355,381l7-7.4c0.5-0.5,0.5-1.3,0-1.8l-3.5-3.3
  c-0.5-0.5-1.3-0.5-1.8,0l-0.9,1l0,0l-18.8,20l-4.3,4.5v-50.2c0-0.7-0.6-1.3-1.3-1.3h-3.6v0h-1.2c-0.7,0-1.3,0.6-1.3,1.3v16.5h0
  v41.5c-0.6,0.7-4,4.3-6.4,7c-2.1,2.3-5,5.2-8.3,6.9c-2.5,1.3-4,1.7-10.4,1.7c-6.7,0-12.4-4.6-13.5-10.5c-0.7-3.4-0.9-6.5-0.9-10.8
  c0-4.6,0.3-8.4,1-11.3c1.3-5.7,6.9-10.1,13.4-10.1c5.1,0,9.3,2.3,11.4,5.6c0.2,0.3,0.5,0.7,0.9,0.8c0.4,0.1,0.7,0,1-0.1l4.3-2.3
  c0.4-0.2,0.6-0.5,0.6-1.1c0-0.2-0.1-0.4-0.2-0.6l-0.3-0.5c-3.4-5.6-10-9-17.8-9c-10,0-18.8,6.6-20.8,15.7c-0.8,3.4-1.2,7.8-1.2,13
  c0,4.8,0.3,8.3,1.1,12.2c0.2,1,0.7,2.5,1,3.4c0,0-1,1.3-2.9,3.2c-2.6,2.4-5.2,2.1-6.5,1.8c-2.1-0.4-3-2.4-3.1-4.6
  c0,0,0-24.1,0-25.8c0-11.1-8.6-18.8-21-18.8c-6.5,0-12.8,2.7-16.8,7.3c-0.7,0.7-1.2,1.6-1.7,2.5c0,0-0.2,0.4-0.2,0.6
  c0,0.5,0.3,0.9,0.7,1.2v0l4.2,2.2h0c0.2,0.1,0.4,0.2,0.6,0.2c0.4,0,0.8-0.2,1-0.6c0,0,0.3-0.5,0.9-1.1c2.7-3,6.9-5.1,11.3-5.1
  c8.2,0,13.3,4.7,13.3,11.6c0,0.5,0,0.9,0,1.7l-7.1,0c-25,0-26.9,15.9-26.9,20.8c0,3.8,1.3,7.4,3.8,10.3c3.9,4.5,8.8,5.5,13.3,5.5
  c4,0,8.9-1.8,12.5-4.1c1.8-1.2,3.5-2.8,5.1-4.6c1.2,5.1,5.3,8.6,10.2,8.7c3.8,0,5.9-0.7,9-2.8c1-0.7,2.9-2.3,4.3-4
  c3.9,4.4,9.5,6.8,15.9,6.8c6.6,0,9.6-0.2,13.8-2.4c2-1,4.6-2.8,6.7-5c1.5-1.6,3.2-3.4,4.6-5.2l0,10.9c0,0.7,0.6,1.3,1.3,1.3h4.8
  c0.7,0,1.3-0.6,1.3-1.3v-18.5l4.6-4.7c5.1,6.5,12.9,16.4,14.1,17.9l0.3,0.4c2.2,2.4,5.7,6.5,11.8,6.5c0.3,0,2.3,0,3.8-0.6
  c4.3-1.9,7.4-5.2,8.3-6.2c0.6,0.6,1.8,1.8,2.5,2.3c4.1,3.2,9,4.5,14.9,4.5c5.5,0,9.4-0.2,13.3-1.6c3.3-1.1,8.9-4.4,12.1-7.6
  c1.1-1.1,2.8-2.7,4.2-4.4c0.4,8.9,4.7,13.5,13.5,13.5c5,0,7.8-2.8,9.4-4.4c0.2-0.2,5-5,5-5c0.2-0.2,0.3-0.5,0.3-0.8
  C450.8,414.1,450.6,413.8,450.4,413.5L450.4,413.5z M259.8,401.8c0,7.7-8.3,15.1-15.8,15.1c-5.5,0-7.6-1.4-8.7-2.6
  c-1.4-1.6-2-3.4-2-5.5c0-8.6,6.9-13.4,19.5-13.4l7,0V401.8z M377.7,405.1c0,0-0.5-3.1-0.6-7.3c0-1.6,0-3.4,0.1-5.4
  c0-1.8,0.3-4.4,0.6-6.2c0.6-4.3,2.7-6.8,5-8.7c2.6-2.1,6.4-3.3,12.1-3.3c5.5,0,6.3,3.4,5.4,5.3c-2.4,4.8-8.5,10.2-14.5,16.9
  L377.7,405.1z"/>
</g>
</svg>